<?xml version="1.0" encoding="UTF-8" standalone="no"?><!DOCTYPE svg PUBLIC "-//W3C//DTD SVG 1.1//EN" "http://www.w3.org/Graphics/SVG/1.1/DTD/svg11.dtd"><svg width="100%" height="100%" viewBox="0 0 17067 17067" version="1.1" xmlns="http://www.w3.org/2000/svg" xmlns:xlink="http://www.w3.org/1999/xlink" xml:space="preserve" xmlns:serif="http://www.serif.com/" style="fill-rule:evenodd;clip-rule:evenodd;stroke-linejoin:round;stroke-miterlimit:2;"><path d="M11663.168,13479.702c134.557,16.737 101.829,157.28 101.829,157.28c-60.195,143.362 -314.1,261.016 -314.1,261.016c-25.165,38.3 26.27,88.639 26.27,88.639c75.513,71.138 176.2,-17.51 176.2,-17.51c119.284,-44.868 244.556,-431.717 244.556,-431.717c183.403,-504.753 374.175,-557.164 374.175,-557.164c123.448,-21.011 103.312,132.208 103.312,132.208c-12.26,107.688 -222.385,367.249 -222.385,367.249c-112.063,56.013 -218,411.527 -218,411.527c-21.011,122.573 29.77,93.677 29.77,93.677c94.552,8.76 369.901,-488.541 369.901,-488.541c63.041,-39.396 104.629,48.156 104.629,48.156l-106.813,270.532c-62.166,129.582 -41.155,150.151 -41.155,150.151c48.156,20.145 184.739,-191.712 184.739,-191.712c153.218,-291.524 322.188,-293.79 322.188,-293.79c113.822,-23.479 142.718,46.249 142.718,46.249l14.443,-3.5c36.771,-42.906 160.219,-42.749 160.219,-42.749c0,30.802 -166.547,493.082 -166.547,493.082c143.215,10.685 527.919,-972.209 527.919,-972.209l152.334,3.5l-231.135,527.937l20.928,-2.625c198.657,-119.073 260.906,-9.285 260.906,-9.285c71.792,80.45 -122.573,423.75 -122.573,423.75c-6.135,20.136 -1.75,37.646 -1.75,37.646c91.927,40.28 359.401,-441.702 359.401,-441.702c-28.895,2.634 -70.042,-12.693 -70.042,-12.693c-18.385,-56.906 103.312,-69.167 103.312,-69.167c22.761,-2.625 77.042,-212.75 77.042,-212.75l147.084,4.375c-31.511,19.261 -68.181,230.141 -68.181,230.141c54.723,-15.797 62.931,0 62.931,0c-27.357,56.704 -87.552,47.953 -87.552,47.953c-116.282,121.753 -165.534,462.381 -165.534,462.381l15.051,-5.471c69.765,-5.471 281.806,-276.335 281.806,-276.335c-15.042,-31.465 -5.471,-132.696 -5.471,-132.696c56.096,-71.138 142.957,-95.833 142.957,-95.833c129.96,-21.95 188.783,53.425 188.783,53.425c72.51,125.852 -50.615,145.693 -50.615,145.693c-67.03,-9.58 -60.186,-114.909 -60.186,-114.909c-91.66,-80.717 -91.66,25.985 -91.66,25.985c0,20.522 165.534,264.71 165.534,264.71c50.615,5.471 220.248,-173.732 220.248,-173.732c35.564,-58.822 57.45,-38.309 57.45,-38.309c73.873,154.591 -281.124,292.758 -281.124,292.758c-45.144,120.381 -162.789,128.588 -162.789,128.588c-124.489,19.15 -208.623,-72.501 -208.623,-72.501c-27.357,-45.144 -50.615,-21.886 -50.615,-21.886c-153.218,135.432 -251.713,72.501 -251.713,72.501c-84.816,-36.937 -9.57,-202.461 -9.57,-202.461l-117.654,145.002c-109.438,151.855 -229.137,53.351 -229.137,53.351c-120.39,-56.087 64.294,-393.979 64.294,-393.979c23.258,-36.937 24.621,-80.717 24.621,-80.717c-205.197,21.895 -349.517,472.652 -349.517,472.652c-28.73,47.88 -50.624,28.72 -50.624,28.72c-56.087,-2.736 -102.594,-83.444 -102.594,-83.444c-42.408,16.414 -154.582,104.464 -154.582,104.464c-67.039,177.646 -279.761,462.575 -279.761,462.575c-120.381,75.237 -212.041,39.276 -212.041,39.276c-75.237,-23.645 -38.3,-132.3 -38.3,-132.3c38.3,-113.546 355.679,-349.526 355.679,-349.526c5.471,-21.886 58.822,-121.753 58.822,-121.753l-32.829,-1.372c-53.36,112.183 -149.119,103.1 -149.119,103.1c-103.966,-33.713 -125.17,-157.815 -125.17,-157.815c-192.891,190.155 -264.019,135.432 -264.019,135.432c-95.768,-2.736 -41.045,-172.368 -41.045,-172.368c-153.218,207.933 -230.509,180.575 -230.509,180.575c-175.104,21.886 -147.056,-157.317 -147.056,-157.317c-110.81,131.323 -206.569,171.493 -206.569,171.493c-121.753,1.861 -188.783,-18.284 -188.783,-18.284c-175.104,-67.03 -112.183,-307.8 -112.183,-307.8c145.011,-306.427 377.574,-279.826 377.574,-279.826Zm390.369,12.371c77.917,-20.136 246.896,-417.624 246.896,-417.624c-99.812,28.895 -246.896,417.624 -246.896,417.624Zm-614.439,295.088c68.642,15.972 188.405,-125.235 188.405,-125.235c63.041,-58.841 -14.001,-105.062 -14.001,-105.062c-110.672,29.411 -174.404,230.297 -174.404,230.297Zm2740.843,49.961c-6.835,78.663 87.211,139.042 87.211,139.042c61.558,38.153 85.498,-53.544 85.498,-53.544c-64.975,-169.292 -123.116,-158.349 -123.116,-158.349l-49.593,72.851Zm-1510.933,373.54c-313.511,227.119 -215.974,348.347 -215.974,348.347c124.01,-30.655 215.974,-348.347 215.974,-348.347Zm-13.531,-422.239c-64.985,118.879 -20.522,183.79 -20.522,183.79c59.854,30.784 165.874,-128.247 165.874,-128.247c129.96,-196.658 63.271,-287.102 63.271,-287.102c-95.768,-42.574 -208.623,231.559 -208.623,231.559Zm-208.273,-584.328c47.843,0 86.677,40.022 86.677,89.311c0,49.28 -38.834,89.302 -86.677,89.302c-47.834,0 -86.677,-40.022 -86.677,-89.302c0,-49.289 38.843,-89.311 86.677,-89.311Zm-9379.173,158.754l-5.95,17.418c-81.878,-6.466 -162.678,-71.101 -162.678,-71.101c-46.323,-53.867 2.155,-192.845 2.155,-192.845c66.799,-135.736 310.268,-144.357 310.268,-144.357c298.414,48.478 461.083,43.09 461.083,43.09c35.555,2.155 64.635,-10.768 64.635,-10.768c71.11,11.846 45.254,49.556 45.254,49.556l-87.266,76.489c-117.424,63.557 -266.092,424.459 -266.092,424.459l237.003,-16.166l12.932,-14.001c56.022,-165.902 250.47,-408.303 250.47,-408.303c156.212,-184.214 304.88,-155.125 304.88,-155.125c117.424,81.869 35.546,168.592 35.546,168.592c-15.079,86.189 -369.515,366.291 -369.515,366.291c-85.102,88.335 -132.502,401.293 -132.502,401.293c-24.778,155.125 58.168,154.057 58.168,154.057c45.254,53.858 202.535,-158.367 202.535,-158.367c9.699,-50.634 205.768,-288.714 205.768,-288.714c172.368,-141.133 313.492,-46.323 313.492,-46.323c53.867,9.69 77.567,-17.243 77.567,-17.243l30.701,-22.079l59.255,0l7.544,28.002l-173.446,450.315l3.224,44.167c112.044,15.088 336.124,-519.795 336.124,-519.795l135.736,1.078l-8.612,66.79c99.112,-86.18 214.38,-72.179 214.38,-72.179c86.189,39.866 82.956,161.6 82.956,161.6c-12.932,26.933 -109.889,277.937 -109.889,277.937c-17.234,28.011 -25.856,81.878 -25.856,81.878c49.556,-4.311 131.434,-141.124 131.434,-141.124c117.424,-216.536 308.666,-350.991 308.666,-350.991c118.594,-95.418 223.241,10.989 223.241,10.989l4.817,-15.171l197.883,-456.772c16.543,-81.362 145.481,-51.021 145.481,-51.021l-41.717,141.686l-133.064,360.939l-144.79,425.058c-11.035,62.056 0,44.821 0,44.821c31.023,-4.145 222.007,-258.898 222.007,-258.898c105.495,-176.513 246.14,-222.016 246.14,-222.016c93.77,-46.194 187.539,26.777 187.539,26.777c66.882,55.037 19.307,127.547 19.307,127.547c-60.674,83.425 -126.174,37.922 -126.174,37.922c-36.541,-12.407 -11.717,-138.582 -11.717,-138.582c-106.186,5.517 -181.331,210.291 -181.331,210.291l-7.59,45.264c-50.33,145.481 84.116,204.082 84.116,204.082c153.062,-7.581 297.161,-246.481 297.161,-246.481c47.576,-73.09 111.464,-280.222 111.464,-280.222l147.544,-3.454c45.503,5.517 -19.307,75.154 -19.307,75.154c71.709,-58.601 202.71,-75.154 202.71,-75.154c87.561,9.653 64.81,73.781 64.81,73.781c-51.021,30.332 -60.674,171.677 -60.674,171.677l51.711,-13.117c135.137,-153.771 237.869,-211.672 237.869,-211.672c150.989,-90.315 246.831,9.653 246.831,9.653l22.079,-2.026c2.155,-34.468 78.645,-49.556 78.645,-49.556c75.412,2.155 75.412,45.245 75.412,45.245c-25.856,25.856 -86.18,197.69 -86.18,197.69c-39.866,78.645 -68.955,230.002 -68.955,230.002c43.099,-21.545 80.395,-62.148 80.395,-62.148c111.096,-70.696 312.35,-581.27 312.35,-581.27c73.256,-197.146 241.323,-332.891 241.323,-332.891c104.491,-25.856 134.658,57.1 134.658,57.1c44.167,71.101 -72.179,242.935 -72.179,242.935c-25.856,107.724 -253.703,290.336 -253.703,290.336l-37.71,145.969c-45.245,101.267 58.03,161.6 58.03,161.6c234.7,-157.29 210.834,-320.502 210.834,-320.502c-42.012,-42.012 -24.778,-49.556 -24.778,-49.556c7.544,-25.856 73.256,-25.856 73.256,-25.856l68.945,-145.435c15.088,-62.479 81.878,-75.412 81.878,-75.412c82.956,45.245 54.401,117.424 54.401,117.424c-24.778,8.622 -54.935,108.811 -54.935,108.811l112.035,6.466c-11.846,57.091 -143.279,71.635 -143.279,71.635c-28.011,30.167 -126.045,402.914 -126.045,402.914c-18.312,87.257 36.633,31.244 36.633,31.244l147.59,-144.357c96.957,-280.102 301.103,-359.824 301.103,-359.824c87.257,-35.546 189.602,24.778 189.602,24.778c58.178,35.555 34.477,121.735 34.477,121.735l-75.412,86.189c-73.256,87.257 -270.403,175.601 -270.403,175.601c-8.622,101.258 77.567,88.335 77.567,88.335c119.579,30.167 241.314,-123.89 241.314,-123.89l76.489,-154.057c113.113,-156.203 249.392,-203.613 249.392,-203.613c134.667,-54.935 141.133,19.399 141.133,19.399l31.235,4.302l224.08,-523.562l18.312,-17.243c121.744,-22.623 116.871,44.306 116.871,44.306l-347.012,889.742c-23.267,80.146 12.067,62.912 12.067,62.912l211.156,-230.979c52.568,-33.611 25.856,44.821 25.856,44.821c-37.922,79.29 -135.312,189.602 -135.312,189.602c-60.333,108.59 -187.447,72.4 -187.447,72.4c-81.878,1.722 -62.921,-122.389 -62.921,-122.389l-62.046,81.878c-65.501,79.29 -166.768,58.601 -166.768,58.601c-102.566,-7.756 -134.446,-146.513 -134.446,-146.513c-47.41,87.045 -111.179,112.901 -111.179,112.901c-112.044,61.199 -238.302,21.554 -238.302,21.554c-83.6,-28.444 -138.757,-143.068 -138.757,-143.068l-23.267,-3.454l-97.822,123.245c-51.711,53.434 -122.379,45.678 -122.379,45.678c-62.056,-11.201 -99.545,-66.357 -99.545,-66.357c-9.478,-46.544 17.234,-181.856 17.234,-181.856l-131.406,109.456c-18.505,13.789 -22.862,25.856 -22.862,25.856c-22.411,87.911 -75.845,269.758 -75.845,269.758c-24.124,108.59 -145.647,276.224 -145.647,276.224c-86.189,97.39 -193.057,36.191 -193.057,36.191c-37.922,-10.335 -19.822,-146.513 -19.822,-146.513l41.082,-145.932l137.891,-387.486l-62.746,88.252c-65.501,134.446 -157.198,122.72 -157.198,122.72c-64.119,9.653 -99.969,-70.318 -99.969,-70.318l-7.59,-47.576c-10.344,-11.726 -51.711,46.885 -51.711,46.885c-55.847,59.983 -145.481,74.463 -145.481,74.463c-84.107,0.691 -148.235,-57.57 -148.235,-57.57c-71.018,-80.671 3.242,-217.263 3.242,-217.263c-50.901,14.544 -121.191,13.743 -121.191,13.743c-68.678,-27.477 -101.811,-109.078 -101.811,-109.078l2.423,-54.945c-8.078,-50.099 -71.902,46.866 -71.902,46.866c-2.432,35.546 -82.421,135.736 -82.421,135.736c-4.845,32.322 -90.49,205.63 -90.49,205.63c-28.278,67.066 -88.878,43.633 -88.878,43.633c-48.478,-3.233 -35.546,-77.567 -35.546,-77.567l69.48,-133.313l-142.202,140.581c-101,85.645 -255.72,70.3 -255.72,70.3c-117.157,-15.355 -143.418,-160.79 -143.418,-160.79c-84.033,148.668 -225.83,164.824 -225.83,164.824c-80.8,14.544 -107.467,-46.047 -107.467,-46.047l-1.612,-95.345c-97.767,97.767 -159.169,139.779 -159.169,139.779c-50.099,13.734 -124.433,-6.466 -124.433,-6.466c-86.456,-5.656 -75.145,-151.901 -75.145,-151.901c-23.424,16.967 -74.334,101.811 -74.334,101.811c-130.89,113.113 -188.258,56.556 -188.258,56.556c-56.556,-13.734 -60.6,-102.612 -60.6,-102.612c-8.078,-58.178 92.922,-272.291 92.922,-272.291c18.579,-37.167 24.235,-97.767 24.235,-97.767c-4.034,-43.624 -88.473,21.821 -88.473,21.821c-103.414,42.012 -269.859,438.322 -269.859,438.322c-30.701,47.677 -56.888,34.551 -56.888,34.551c-20.347,2.487 -29.531,-92.084 -29.531,-92.084c-91.844,98.292 -220.662,93.825 -220.662,93.825c-60.066,-13.9 -65.279,-104.252 -65.279,-104.252c-1.98,-33.759 -16.055,-23.857 -16.055,-23.857c-101.194,125.078 -240.641,112.422 -240.641,112.422c-146.402,-7.756 -116.143,-191.73 -116.143,-191.73c-44.877,110.396 -145.601,180.05 -145.601,180.05c-139.613,75.624 -219.124,4.845 -219.124,4.845c-31.023,-23.267 -64.957,-92.112 -64.957,-92.112c-87.266,-144.459 33.538,-433.624 33.538,-433.624c-65.528,21.444 -253.979,45.411 -253.979,45.411c-85.406,166.215 -253.638,390.544 -253.638,390.544c-280.01,253.638 -479.358,76.01 -479.358,76.01c-92.305,-99.278 3.077,-236.57 3.077,-236.57c162.089,-147.378 528.223,-259.847 528.223,-259.847l27.698,-19.058l67.877,-138.167c69.074,-145.435 323.348,-343.954 323.348,-343.954c-115.379,31.023 -299.593,-5.821 -299.593,-5.821c-218.157,-25.211 -268.579,5.821 -268.579,5.821c-168.702,106.647 15.512,260.814 15.512,260.814Zm5179.228,-120.611c32.184,-58.343 80.938,-162.54 39.322,-195.019c0,0 -124.968,114.918 -170.931,261.431c0,0 -73.256,178.107 -70.382,211.147c0,0 122.094,-113.472 178.116,-225.517c23.221,-46.452 27.191,-56.354 23.875,-52.043c-13.365,24.235 -23.875,40.557 -23.875,40.557c0,0 19.196,-34.459 23.875,-40.557Zm-4009.237,641.373l-19.159,165.202l42.675,-10.003c47.115,-11.486 176.965,-182.703 176.965,-182.703c108.019,-214.887 3.445,-243.617 3.445,-243.617c-127.556,12.638 -203.926,271.121 -203.926,271.121Zm3233.05,-305.433c-150.814,40.225 -221.206,337.561 -221.206,337.561c-33.031,80.432 45.964,93.889 45.964,93.889c50.274,13.448 201.098,-279.19 201.098,-279.19c56.022,-106.297 -25.856,-152.26 -25.856,-152.26Zm1217.788,226.558c96.524,7.94 200.407,-156.866 200.407,-156.866c10.114,-36.771 -11.956,-69.692 -11.956,-69.692c-129.619,13.973 -188.451,226.558 -188.451,226.558Zm-2881.184,-147.922c-17.234,-57.947 -98.817,-56.962 -98.817,-56.962c-214.887,167.772 -186.157,405.641 -186.157,405.641c20.679,11.486 55.156,-4.596 55.156,-4.596c133.295,-76.996 229.818,-344.083 229.818,-344.083Zm2119.09,235.732l-12.932,20.108c-17.234,89.063 -179.553,545.834 -179.553,545.834l0,27.293c64.644,-14.36 175.242,-249.935 175.242,-249.935c83.315,-175.242 17.243,-343.3 17.243,-343.3Zm-4720.863,-235.732c-143.574,13.789 -434.665,223.048 -434.665,223.048c-130.135,149.101 20.007,201.789 20.007,201.789c169.273,99.112 414.658,-424.837 414.658,-424.837Zm6176.105,-78.636c-92.848,18.109 -195.811,304.567 -195.811,304.567c-26.657,102.05 40.446,114.918 40.446,114.918c91.015,0 230.749,-372.315 230.749,-372.315c7.35,-33.096 -75.384,-47.17 -75.384,-47.17Zm-5480.626,-165.828c147.093,-64.349 316.016,-306.814 316.016,-306.814c45.964,-66.652 -8.051,-89.634 -8.051,-89.634c-168.914,37.922 -307.966,396.448 -307.966,396.448Zm7027.907,-417.974c-21.582,-16.138 -136.463,-49.344 -136.463,-49.344c-356.702,-50.274 -564.984,235.575 -564.984,235.575c-160.394,309.789 -20.679,440.883 -20.679,440.883c21.453,55.156 -41.671,49.031 -41.671,49.031c-46.581,-10.427 -76.545,-62.599 -76.545,-62.599c-143.639,-157.105 40.4,-430.17 40.4,-430.17c209.471,-302.246 586.529,-303.738 586.529,-303.738c347.131,-8.981 504.237,274.557 504.237,274.557c109.226,275.312 -10.473,573.072 -10.473,573.072c-163.093,300.744 -427.628,355.265 -427.628,355.265c-196.732,34.929 -457.813,-46.581 -457.813,-46.581c-172.829,97.445 -271.499,33.096 -271.499,33.096c-70.475,-50.256 3.067,-117.055 3.067,-117.055c23.286,4.292 64.349,-9.81 64.349,-9.81c23.286,-30.636 155.051,-3.675 155.051,-3.675c9.193,-6.743 16.718,-18.312 16.718,-18.312l172.82,-437.649c177.305,-520.697 464.583,-482.545 464.583,-482.545Zm-543.163,977.709c0,0 129.933,25.985 152.97,36.771c0,0 278.904,78.286 461.451,-195.534c0,0 236.404,-344.58 92.766,-671.815c0,0 -59.034,-113.509 -134.879,-142.616c0,0 -150.151,62.056 -221.399,222.928c0,0 -27.744,81.491 -41.146,135.118c0,0 -135.026,337.073 -157.05,372.499c0,0 -134.317,230.997 -152.712,242.649Z" style="fill:url(#_Linear1);"/><path id="HEMA-BAKES" serif:id="HEMA BAKES" d="M347.737,11585.3c0,0 39.304,-1148.843 0,-1366.52c0,0 -69.793,-72.077 -207.555,-81.362c0,0 -32.506,-66.56 61.917,-82.044l580.468,3.095c0,0 49.538,77.401 4.652,83.591c0,0 -173.372,-38.696 -164.087,134.667l0,523.203c0,0 612.21,21.665 842.848,-4.652l-3.095,-589.753c0,0 15.475,-47.99 -185.752,-78.949c0,0 -25.073,-78.322 19.5,-89.219l611.049,-1.087c0,0 39.626,76.084 1.584,84.798c0,0 -183.864,1.584 -165.635,137.9c0,0 -12.14,417.413 -4.394,647.664l9.672,654.959c0,0 6.549,127.878 197.957,118.363l4.375,91.54l-641.17,-2.376c0,0 -60.232,-9.506 -40.419,-82.421c0,0 146.623,-4.753 183.873,-91.937l12.675,-656.617c0,0 -724.291,8.53 -838.832,14.729l3.095,636.97c0,0 -6.908,87.939 195.986,92.379l0,88.445l-632.447,0.636c0,0 -57.699,-3.804 -26.629,-97.012c0,0 119.8,34.422 180.364,-88.989Zm1902.25,-1549.03l1187.529,0l13.955,368.345c0,0 -63.879,26.252 -119.063,-64.635c0,0 12.979,-127.74 -157.124,-181.147l-423.308,1.787c0,0 -46.747,-9.091 -33.114,86.999l0.608,552.798l-0.405,11.026l431.146,-1.326c0,0 81.519,-79.944 82.044,-190.689c0,0 69.074,-58.813 95.566,17.538l1.041,466.674c0,0 -21.296,57.653 -45.19,57.653c0,0 -55.571,-5.186 -65.961,-68.559c0,0 -9.865,-159.97 -99.204,-146.992l-379.159,1.041c0,0 -8.308,-9.091 -11.431,55.322l7.553,555.654c0,0 2.791,57.468 126.782,70.76l282.082,6.383c0,0 225.36,0.617 272.097,-154.471c0,0 75.32,-136.39 106.481,-129.638c0,0 78.433,4.154 32.718,120.5c0,0 -62.838,230.574 -89.855,293.458l-1207.149,6.743c0,0 -12.702,-69.719 -33.123,-79.925c0,0 65.593,7.028 108.139,-16.58c0,0 87.423,-60.83 101.719,-68.476l-1.363,-1406.414c0,0 -31.318,-57.975 -185.577,-89.146c0,0 -12.453,-44.729 1.566,-74.684Zm1848.669,255.775c-19.758,-134.833 -133.451,-154.637 -133.451,-154.637l-99.72,-36.568l2.119,-54.244c97.463,-11.109 449.283,-10.326 449.283,-10.326l613.951,1271.084l9.801,-22.973l542.795,-1224.65l0.35,-27.228l443.185,3.767c32.561,45.752 8.401,80.192 8.401,80.192c-170.194,13.126 -193.803,65.887 -193.803,65.887l46.129,1400.795c36.881,68.07 137.725,76.25 137.725,76.25c81.095,-2.819 73.625,48.616 73.625,48.616c3.233,42.362 -23.194,41.727 -23.194,41.727l-600.899,3.924c-62.249,3.546 -57.514,-42.15 -57.514,-42.15c-10.243,-58.316 90.61,-55.552 90.61,-55.552c78.792,-13.006 95.547,-94.903 95.547,-94.903l-28.766,-1117.055c4.633,-40.944 -12.84,-30.434 -12.84,-30.434l-557.284,1300.449c-18.081,39.055 -40.022,37.121 -40.022,37.121c-20.016,0.479 -45.282,-35.592 -45.282,-35.592l-552.457,-1226.373c-6.779,-30.498 -36.697,-20.707 -36.697,-20.707l17.28,1130.429c35.021,47.428 177.655,76.941 177.655,76.941c36.31,37.103 -0.055,83.324 -0.055,83.324l-552.255,-0.359c-16.663,-7.443 -17.814,-74.03 -17.814,-74.03c110.801,-11.772 186.535,-97.73 186.535,-97.73l57.063,-1294.996Zm2916.168,-276.629c34.293,-19.528 63.741,-17.28 63.741,-17.28c46.581,8.787 63.004,34.367 63.004,34.367l621.845,1517.611c105.597,109.419 180.032,103.054 180.032,103.054c22.899,19.086 11.228,85.562 11.228,85.562l-608.304,2.984c-56.658,-10.934 -39.765,-73.551 -39.765,-73.551c142.137,-52.688 148.106,-96.422 148.106,-96.422l-134.925,-380.393c-15.631,-42.731 -36.043,-58.611 -36.043,-58.611l-560.103,5.969l-119.533,443.01c-10.749,47.88 84.033,74.26 84.033,74.26l40.161,1.428c74.914,18.238 27.412,101.756 27.412,101.756l-510.814,0c-62.986,-56.483 -37.324,-85.065 -37.324,-85.065c163.065,-9.543 219.622,-146.31 219.622,-146.31l587.625,-1512.37Zm-13.467,394.136l-213.901,585.645l455.63,-6.365l-241.728,-579.28Zm2036.291,-223.545c-24.373,-70.171 -189.179,-95.492 -189.179,-95.492c-20.707,-24.585 3.887,-92.462 3.887,-92.462l766.184,0c443.913,34.376 465.919,397.259 465.919,397.259c0,256.254 -202.995,348.725 -202.995,348.725c-77.53,19.214 -82.385,55.451 -82.385,55.451c407.676,110.009 405.088,436.489 405.088,436.489c-15.53,393.786 -416.74,486.634 -416.74,486.634c-256.254,40.124 -896.899,11.643 -896.899,11.643c-58.242,1.299 -37.535,-67.297 -37.535,-67.297c144.956,-24.594 202.351,-114.679 202.351,-114.679l-17.695,-1366.272Zm302.992,696.695l6.208,628.477c0,0 32.598,133.046 207.85,119.588c0,0 244.611,9.322 321.23,-237.104c0,0 86.972,-314.754 -102.502,-437.963c0,0 -111.823,-109.751 -432.786,-72.998Zm-4.246,-666.639l-5.177,524.161c0,0 340.38,84.125 421.917,-93.189c0,0 116.484,-256.254 -45.291,-434.858c0,0 -177.315,-132.014 -392.156,-78.949c0,0 3.224,55.212 19.786,79.363l0.921,3.473Zm3267.693,-47.806c-28.37,-61.834 -206.459,-95.078 -206.459,-95.078c16.967,-14.314 27.035,-82.698 27.035,-82.698l599.563,7.572c51.417,45.208 5.831,93.42 5.831,93.42c-104.961,-3.712 -143.132,56.188 -143.132,56.188l0.525,640.203c9.994,5.646 33.059,-11.735 33.059,-11.735l524.059,-573.643l21.232,-52.936c55.129,-31.806 -80.109,-83.343 -80.109,-83.343c-60.462,-15.733 0,-85.369 0,-85.369l556.621,0c89.459,18.164 68.752,92.001 68.752,92.001c-215.366,5.794 -383.442,171.65 -383.442,171.65l-443.517,460.466c-35.831,33.869 -30.83,50.063 -30.83,50.063l648.751,738.126c115.959,119.073 238.348,132.696 238.348,132.696c76.204,31.143 8.612,90.785 8.612,90.785l-647.074,-1.326c-29.153,-22.53 -38.576,-83.895 -38.576,-83.895c113.472,-20.707 118.446,-77.862 118.446,-77.862l-547.511,-649.663c-23.194,-23.866 -45.558,-15.88 -45.558,-15.88l14.084,633.239c18.22,131.701 130.043,91.937 130.043,91.937c60.462,28.168 20.707,105.201 20.707,105.201l-571.534,-2.487c-36.237,-25.883 -39.341,-72.473 -39.341,-72.473c147.028,13.457 171.53,-111.409 171.53,-111.409l-10.114,-1363.748Zm1813.694,-12.269c-6.568,-53.931 -121.062,-77.291 -121.062,-77.291c-44.039,-4.495 -44.932,-26.058 -44.932,-26.058c-27.864,-55.727 20.67,-71.801 20.67,-71.801l1097.398,-9.994c67.407,-0.893 86.281,27.21 86.281,27.21l8.99,355.67c-19.776,20.67 -55.727,16.175 -55.727,16.175c-80.892,3.602 -74.601,-88.98 -74.601,-88.98c-25.165,-135.708 -139.309,-167.164 -139.309,-167.164l-405.337,1.796c-88.086,-2.699 -88.086,23.369 -88.086,23.369l12.693,619.395l405.53,1.437c74.058,7.185 97.786,-179.037 97.786,-179.037c42.417,-82.689 118.64,17.252 118.64,17.252l-3.602,500.083c-17.252,30.194 -67.941,23 -67.941,23c-60.398,3.602 -69.028,-117.193 -69.028,-117.193c-3.592,-83.407 -107.393,-113.288 -107.393,-113.288l-335.553,0.737c-29.816,-0.737 -49.39,12.573 -49.39,12.573l14.231,543.744c6.475,40.124 20.707,84.125 20.707,84.125c141.078,102.244 484.046,49.178 484.046,49.178c124.249,5.186 205.777,-142.358 205.777,-142.358c15.539,-16.829 11.652,-53.065 11.652,-53.065c51.767,-113.896 143.657,-51.767 143.657,-51.767c-45.3,302.844 -97.067,384.639 -97.067,384.639l-1210.097,0l-31.06,-71.442c24.585,16.829 186.36,-82.827 186.36,-82.827l-14.231,-1408.118Zm2438.035,224.163c-37.388,48.893 -102.585,8.631 -102.585,8.631l-76.692,-168.73c-185.982,-256.927 -442.909,-69.028 -442.909,-69.028c-256.927,243.506 65.187,456.339 65.187,456.339c92.038,65.187 402.647,248.047 402.647,248.047c297.198,196.28 228.169,489.186 228.169,489.186c-93.954,341.292 -498.517,399.46 -498.517,399.46c-471.675,-16.598 -529.199,-159.795 -529.199,-159.795l-42.178,-352.796l99.702,-32.589c36.43,222.412 224.338,352.796 224.338,352.796c281.852,184.066 454.414,-88.206 454.414,-88.206c111.206,-276.095 -180.235,-454.414 -180.235,-454.414c-74.776,-36.43 -345.123,-200.361 -345.123,-200.361c-245.422,-191.739 -214.749,-366.226 -214.749,-366.226c-13.421,-281.852 301.03,-444.41 301.03,-444.41c299.105,-105.993 643.279,38.217 643.279,38.217l13.421,343.88Zm-5575.105,-384.989c33.556,-19.058 61.448,-13.605 61.448,-13.605c41.984,13.577 53.719,54.714 53.719,54.714l645.26,1506.116c77.862,81.178 186.369,101.056 186.369,101.056c43.9,42.242 -19.887,85.314 -19.887,85.314l-607.144,-4.136c-70.41,-88.63 56.326,-106.849 56.326,-106.849c66.265,-0.829 50.8,-59.145 50.8,-59.145c-96.892,-413.203 -162.558,-448.316 -162.558,-448.316l-530.627,3.104c-46.599,51.767 -157.382,433.311 -157.382,433.311c13.457,96.293 179.12,109.751 179.12,109.751l-3.104,73.514l-523.903,-1.041c-56.943,-10.353 -42.454,-61.088 -42.454,-61.088c95.262,-8.281 219.99,-140.231 219.99,-140.231l594.027,-1532.469Zm-219.75,971.427l407.944,12.417c37.278,8.29 39.35,-18.634 39.35,-18.634l-220.543,-559.108c1.041,-22.779 -31.06,-19.666 -31.06,-19.666l-195.691,584.991Z" style="fill:url(#_Linear2);"/><path id="HB1" d="M2374.714,5525.449c-77.714,8.348 -182.991,-15.514 -182.991,-15.514c-332.455,-91.817 -506.745,-277.017 -506.745,-277.017c-333.938,-274.569 -247.358,-888.096 -247.358,-888.096c197.893,-684.022 759.403,-890.501 759.403,-890.501c390.828,-160.788 1465.617,-24.743 1465.617,-24.743c479.876,81.633 1649.904,-9.893 1649.904,-9.893l252.305,-361.149c239.943,-388.35 623.357,-314.141 623.357,-314.141c277.037,103.888 126.152,422.986 126.152,422.986c-128.631,242.411 -659.217,408.146 -659.217,408.146c-34.636,192.946 -182.783,650.444 -182.783,650.444c-86.964,207.744 -310.553,1382.884 -310.553,1382.884c230.04,31.66 427.445,47.495 427.445,47.495c330.474,53.427 1079.289,0 1079.289,0c33.734,2.126 41.677,-16.914 41.677,-16.914c98.941,-363.617 438.5,-1274.185 438.5,-1274.185c686.625,-1437.109 1284.161,-1739.066 1284.161,-1739.066c539.256,-272.091 743.007,222.625 743.007,222.625c1106.635,-346.299 1792.244,-122.191 1792.244,-122.191c429.281,-193.931 908.317,-256.007 908.317,-256.007c148.417,84.35 37.592,184.028 37.592,184.028c-328.494,21.777 -622.693,147.307 -622.693,147.307c1117.233,398.575 1201.781,1303.283 1201.781,1303.283c72.466,1225.943 -1082.203,1540.074 -1082.203,1540.074c1101.533,392.643 1414.088,1444.597 1414.088,1444.597l34.636,-7.425l93.995,132.343c-188,-54.422 -1285.592,-23.063 -1285.592,-23.063c-2312.979,241.561 -1820.834,1500.958 -1820.834,1500.958c395.536,1011.78 1416.66,357.126 1416.66,357.126c850.691,-493.254 865.758,-1756.27 865.758,-1756.27c148.417,-21.642 694.548,41.698 694.548,41.698c6.035,1431.271 -1207.816,1962.708 -1207.816,1962.708c-1455.433,603.913 -1912.475,-319.306 -1912.475,-319.306c-559.695,-1098.36 729.9,-1686.376 729.9,-1686.376c677.769,-309.205 1661.809,-306.468 1661.809,-306.468c-198.09,-1080.699 -920.077,-1192.811 -920.077,-1192.811c-158.31,96.971 -395.775,130.611 -395.775,130.611c-724.279,69.262 -583.775,-340.367 -583.775,-340.367c263.193,-326.523 959.577,-39.925 959.577,-39.925c614.543,-289.875 718.897,-1047.422 718.897,-1047.422c162.334,-877.362 -528.025,-1336.011 -528.025,-1336.011c-510.551,-340.378 -1356.606,-251.319 -1356.606,-251.319c-710.497,21.767 -1220.976,531.644 -1220.976,531.644c-261.223,154.66 -520.455,710.642 -520.455,710.642c-170.184,308.925 -191.951,741.099 -191.951,741.099c0,413.591 109.871,511.267 109.871,511.267c136.782,250.759 423.007,182.369 423.007,182.369c210.233,-50.658 290.021,-269.757 290.021,-269.757c17.733,-27.864 36.731,-207.703 36.731,-207.703c-1.265,-30.405 40.526,-78.522 40.526,-78.522c59.524,-68.391 162.116,92.449 162.116,92.449l-1.265,187.44c-3.806,189.98 -176.043,348.29 -176.043,348.29c-231.772,191.235 -537.731,120.096 -537.731,120.096c-413.093,-86.58 -490.33,-454.418 -490.33,-454.418c-203.088,-615.517 61.35,-1155.675 61.35,-1155.675c43.534,-227.582 435.358,-735.168 435.358,-735.168c229.542,-271.106 514.129,-455.393 514.129,-455.393c41.532,-18.241 56.735,-67.883 56.735,-67.883l-114.953,-119.982c-343.831,-153.363 -681.015,391.451 -681.015,391.451c-100.497,127.542 -401.966,834.845 -401.966,834.845c-119.816,224.17 -436.747,1410.738 -436.747,1410.738c-81.167,235.764 -271.251,1188.704 -271.251,1188.704c-126.65,523.711 -177.318,1158.797 -177.318,1158.797c-140.11,937.271 149.63,1238.066 149.63,1238.066c374.9,419.522 746.513,114.683 746.513,114.683c710.196,-372.007 1038.732,-1507.367 1038.732,-1507.367c115.948,-217.409 410.656,-1818.978 410.656,-1818.978c38.649,-512.117 449.316,-1512.189 449.316,-1512.189c328.525,-879.302 1056.848,-1318.818 1056.848,-1318.818l78.668,86.839c-262.706,228.007 -511.816,819.808 -511.816,819.808c-45.297,86.051 -187.968,559.374 -187.968,559.374c-76.998,190.229 -317.055,1711.181 -317.055,1711.181c-249.111,1269.57 -489.168,1705.291 -489.168,1705.291c-208.346,566.166 -823.656,1188.134 -823.656,1188.134c-932.365,679.397 -1554.24,199.293 -1554.24,199.293c-511.816,-353.289 -587.186,-1026.36 -587.186,-1026.36c-83.345,-554.386 25.355,-1063.485 25.355,-1063.485c0,-112.329 224.43,-1105.774 224.43,-1105.774c34.647,-94.835 17.152,-94.181 17.152,-94.181c-247.866,37.104 -1029.274,8.908 -1029.274,8.908c-124.68,-5.942 -481.339,-34.169 -481.339,-34.169c-51.674,-15.203 -50.409,8.192 -50.409,8.192c-54.36,289.875 -336.987,1208.428 -336.987,1208.428c-32.614,141.313 -380.178,841.233 -380.178,841.233c-75.37,171.034 -558.306,782.963 -558.306,782.963c-241.177,287.563 -773.392,570.48 -773.392,570.48c-366.407,215.667 -970.517,217.99 -970.517,217.99c-568.157,18.552 -1064.429,-289.886 -1064.429,-289.886c-426.699,-306.105 -547.292,-652.798 -547.292,-652.798c-201.75,-375.678 -118.271,-936.223 -118.271,-936.223c95.083,-762.285 540.427,-1089.794 540.427,-1089.794c520.942,-470.481 1051.539,-474.94 1051.539,-474.94c571.403,-41.553 979.549,178.106 979.549,178.106c431.904,230.04 538.758,648.577 538.758,648.577c19.299,69.76 25.23,313.167 25.23,313.167c-4.449,228.557 -70.88,394.904 -70.88,394.904c-39.894,157.677 -139.633,130.134 -139.633,130.134c-75.992,-23.748 -64.44,-79.653 -64.44,-79.653c-18.552,-64.938 58.902,-257.179 58.902,-257.179c202.912,-649.334 -533.376,-1002.975 -533.376,-1002.975c-808.754,-284.089 -1426.2,267.932 -1426.2,267.932c-400.027,241.852 -602.949,803.704 -602.949,803.704c-249.287,795.013 102.685,1215.262 102.685,1215.262c525.401,855.139 1558.087,543.518 1558.087,543.518c1210.243,-471.051 1667.492,-1885.336 1667.492,-1885.336c92.761,-197.115 390.289,-1312.181 390.289,-1312.181c45.411,-139.81 19.589,-133.577 19.589,-133.577c-26.713,-28.497 -404.569,47.422 -404.569,47.422c-101.575,18.085 -524.914,179.33 -524.914,179.33c-56.994,7.124 -82.484,-77.205 -82.484,-77.205c15.659,-144.362 173.927,-308.718 173.927,-308.718c419.16,-333.948 978.958,-228.474 978.958,-228.474l7.487,-36.679c182.597,-946.915 646.794,-1823.51 646.794,-1823.51l-361.44,76.085c-86.964,29.897 -1281.351,8.161 -1281.351,8.161c-910.402,-73.379 -1275.917,84.236 -1275.917,84.236c-614.18,282.637 -687.558,558.471 -576.132,1004.77c111.416,446.288 668.529,489.168 668.529,489.168l-2.717,176.644Zm3371.31,-2228.659c22.482,8.431 96.494,-5.621 96.494,-5.621c467.495,-170.516 309.164,-342.898 309.164,-342.898c-168.628,-82.442 -405.658,348.518 -405.658,348.518Z" style="fill:url(#_Linear3);"/><path id="cupcake2" d="M13171.67,7382.413c0,0 440.304,160.778 544.202,69.262c0,0 1100.755,136.045 1491.584,7.415c0,0 134.811,-27.211 218.913,7.425c0,0 299.312,-99.014 432.89,-110.11c0,0 27.211,68.059 -22.265,171.947c0,0 -316.62,961.951 -338.885,1304.839c0,0 -398.834,196.939 -1059.285,179.621c0,0 -573.881,-7.415 -771.764,-155.832c0,0 -294.366,-1127.977 -408.146,-1261.544c0,0 -137.943,-175.555 -87.244,-213.023Zm2136.676,210.679c0,0 -88.965,-57.45 -178.563,22.472c0,0 -107.662,1002.696 -105.267,1171.23c0,0 84.599,44.311 105.267,-50.067c20.678,-94.378 137.591,-1041.449 178.563,-1143.636Zm204.55,-27.813c-73.006,38.525 -249.847,1134.271 -249.847,1134.271c6.336,108.71 87.513,4.615 87.513,4.615c33.495,-164.905 327.239,-1187.843 327.239,-1187.843c-46.385,7.726 -91.91,10.422 -164.905,48.957Zm-1406.144,86.041c39.655,102.705 135.651,1019.9 155.116,1114.537c19.465,94.638 104.624,51.405 104.624,51.405c4.552,-168.493 -72.28,-1147.939 -72.28,-1147.939c-88.571,-81.053 -187.46,-18.002 -187.46,-18.002Zm-529.954,-38.494c-73.109,-34.74 -117.524,-34.978 -163.039,-40.236c0,0 342.836,1011.489 384.637,1175.306c0,0 84.734,100.134 84.796,-9.385c0,0 -233.286,-1090.945 -306.395,-1125.685Zm1400.731,33.184c0,0 -101.637,-58.529 -186.465,26.433c0,0 -32.572,981.914 -20.429,1150.034c0,0 87.016,39.344 102.197,-56.071c15.182,-95.415 69.708,-1016.011 104.697,-1120.396Zm-520.071,24.878c33.755,104.79 62.148,996.266 76.21,1091.847c14.051,95.592 79.238,37.011 79.238,37.011c14.124,-167.954 19.444,-1127.904 19.444,-1127.904c-83.811,-85.958 -174.892,-0.954 -174.892,-0.954Zm-701.403,-45.411c49.756,98.205 249.142,1031.41 278.002,1123.611c28.86,92.211 109.249,40.661 109.249,40.661c-12.372,-168.099 -207.402,-1157.521 -207.402,-1157.521c-96.255,-71.771 -179.849,-6.751 -179.849,-6.751Zm-894.297,-558.212c0,0 -41.543,-346.807 261.399,-484.315c0,0 -106.387,-237.807 101.326,-407.016l40.236,-23.302c0,0 -3.038,-329.469 436.695,-431.614l37.488,-17.048c0,0 -48.076,-248.488 329.344,-400.462c0,0 246.964,-93.725 241.893,-291.296c-5.061,-197.571 -187.44,-336.883 -187.44,-336.883c0,0 278.624,-25.334 485.072,168.442c0,0 319.783,236.221 288.123,506.59c0,0 214.671,5.05 375.512,290.01c0,0 477.533,149.475 387.551,628.729c0,0 555.018,222.283 337.993,706.142c0,0 339.185,-107.123 475.967,-247.7c0,0 226.701,-272.298 -53.199,-328.027c0,0 -5.061,-30.395 87.389,-129.18c0,0 262.167,-17.733 267.227,262.167c0,0 49.953,348.207 -714.396,610.405c0,0 -541.724,183.053 -1058.704,207.786c0,0 -911.138,46.997 -2047.597,-128.631l-91.537,-138.296l-0.342,-16.499Zm174.031,-61.619c337.163,183.686 1704.575,176.572 1704.575,176.572c920.16,0 1170.463,-214.309 1170.463,-214.309c33.205,-83.002 6.461,-245.771 6.461,-245.771c-18.448,-221.339 -329.24,-315.407 -329.24,-315.407c-33.205,56.258 -142.838,199.801 -142.838,199.801c-186.755,209.808 -472.171,298.348 -472.171,298.348c-135.568,23.053 -48.542,-102.301 -48.542,-102.301c702.481,-338.625 612.417,-677.261 612.417,-677.261c-23.416,-354.844 -308.013,-300.806 -308.013,-300.806c-30.623,291.804 -411.486,584.48 -411.486,584.48c-810.455,500.969 -1365.089,363.057 -1365.089,363.057c-427.787,-208.263 -416.536,233.597 -416.536,233.597Zm643.672,-841.648c29.347,126.505 -108.658,132.405 -108.658,132.405c-313.561,-120.812 -318.175,115.284 -318.175,115.284c-45.193,210.264 257.967,242.557 257.967,242.557c878.099,40.101 1386.389,-495.898 1386.389,-495.898c324.221,-302.268 204.322,-516.732 204.322,-516.732c-283.695,-197.571 -283.892,-151.393 -283.892,-151.393c-72.798,267.403 -501.332,359.687 -501.332,359.687c-104.697,37.156 -555.568,-16.883 -555.568,-16.883c-346.175,38.836 -327.592,282.005 -327.592,282.005c106.377,28.704 246.539,48.968 246.539,48.968Zm661.955,-1350.073c141.842,162.105 57.409,356.306 57.409,356.306c-67.54,138.462 -314.09,283.685 -314.09,283.685c-251.61,99.636 -109.757,254.99 -109.757,254.99c481.266,121.579 746.378,-273.563 746.378,-273.563c121.589,-364.748 -379.94,-621.418 -379.94,-621.418Z" style="fill:url(#_Linear4);"/><path id="LINE" d="M130.087,12398.203l6231.455,-14.379l19.178,86.281l-6236.254,28.766l-14.379,-100.669Zm10021.964,-51.021l6784.529,-14.655l0,108.821l-6784.861,29.374l0.332,-123.54Zm-3520.088,12.932c37.462,0 67.877,31.106 67.877,69.424c0,38.309 -30.415,69.415 -67.877,69.415c-37.453,0 -67.868,-31.106 -67.868,-69.415c0,-38.318 30.415,-69.424 67.868,-69.424Zm333.149,-7.664c45.374,0 82.219,34.542 82.219,77.088c0,42.537 -36.845,77.079 -82.219,77.079c-45.383,0 -82.219,-34.542 -82.219,-77.079c0,-42.546 36.835,-77.088 82.219,-77.088Zm375.032,-18.8c50.302,0 91.135,38.751 91.135,86.484c0,47.732 -40.833,86.484 -91.135,86.484c-50.302,0 -91.144,-38.751 -91.144,-86.484c0,-47.732 40.842,-86.484 91.144,-86.484Zm419.246,-23.931c60.996,0 110.525,49.123 110.525,109.64c0,60.508 -49.528,109.64 -110.525,109.64c-61.005,0 -110.534,-49.132 -110.534,-109.64c0,-60.517 49.528,-109.64 110.534,-109.64Zm481.817,-102.391c115.25,0 208.817,91.586 208.817,204.386c0,112.809 -93.567,204.386 -208.817,204.386c-115.25,0 -208.817,-91.577 -208.817,-204.386c0,-112.8 93.567,-204.386 208.817,-204.386Zm511.026,102.391c58.436,0 105.873,47.437 105.873,105.873c0,58.436 -47.437,105.882 -105.873,105.882c-58.436,0 -105.882,-47.447 -105.882,-105.882c0,-58.436 47.447,-105.873 105.882,-105.873Zm399.46,14.858c53.084,0 96.183,40.787 96.183,91.015c0,50.238 -43.099,91.025 -96.183,91.025c-53.084,0 -96.183,-40.787 -96.183,-91.025c0,-50.228 43.099,-91.015 96.183,-91.015Zm382.401,7.949c47.52,0 86.097,37.222 86.097,83.066c0,45.853 -38.576,83.075 -86.097,83.075c-47.52,0 -86.097,-37.222 -86.097,-83.075c0,-45.844 38.576,-83.066 86.097,-83.066Zm367.276,5.895c41.736,0 75.624,34.579 75.624,77.171c0,42.602 -33.888,77.18 -75.624,77.18c-41.736,0 -75.624,-34.579 -75.624,-77.18c0,-42.592 33.888,-77.171 75.624,-77.171Z" style="fill:url(#_Linear5);"/><defs><linearGradient id="_Linear1" x1="0" y1="0" x2="1" y2="0" gradientUnits="userSpaceOnUse" gradientTransform="matrix(7525.092502,1979.951087,-1979.951087,7525.092502,3813.628871,12616.101629)"><stop offset="0" style="stop-color:#fff9ec;stop-opacity:1"/><stop offset="0.5" style="stop-color:#f6ebd1;stop-opacity:1"/><stop offset="1" style="stop-color:#f3e6c7;stop-opacity:1"/></linearGradient><linearGradient id="_Linear2" x1="0" y1="0" x2="1" y2="0" gradientUnits="userSpaceOnUse" gradientTransform="matrix(7461.055484,2928.003328,-2928.003328,7461.055484,4985.941135,9279.325786)"><stop offset="0" style="stop-color:#fff9ec;stop-opacity:1"/><stop offset="0.44" style="stop-color:#f6ebd1;stop-opacity:1"/><stop offset="1" style="stop-color:#f3e6c7;stop-opacity:1"/></linearGradient><linearGradient id="_Linear3" x1="0" y1="0" x2="1" y2="0" gradientUnits="userSpaceOnUse" gradientTransform="matrix(6882.257046,6821.440589,-6821.440589,6882.257046,4022.274215,2867.469312)"><stop offset="0" style="stop-color:#fff9ec;stop-opacity:1"/><stop offset="0.58" style="stop-color:#f6ebd1;stop-opacity:1"/><stop offset="1" style="stop-color:#f3e6c7;stop-opacity:1"/></linearGradient><linearGradient id="_Linear4" x1="0" y1="0" x2="1" y2="0" gradientUnits="userSpaceOnUse" gradientTransform="matrix(2516.951916,3489.24435,-3489.24435,2516.951916,12953.63854,5524.644733)"><stop offset="0" style="stop-color:#fff9ec;stop-opacity:1"/><stop offset="0.66" style="stop-color:#f6ebd1;stop-opacity:1"/><stop offset="1" style="stop-color:#f3e6c7;stop-opacity:1"/></linearGradient><linearGradient id="_Linear5" x1="0" y1="0" x2="1" y2="0" gradientUnits="userSpaceOnUse" gradientTransform="matrix(15716.368864,666.475849,-666.475849,15716.368864,1220.211184,12207.329114)"><stop offset="0" style="stop-color:#fff9ec;stop-opacity:1"/><stop offset="0.66" style="stop-color:#f6ebd1;stop-opacity:1"/><stop offset="1" style="stop-color:#f3e6c7;stop-opacity:1"/></linearGradient></defs></svg>